<svg xmlns="http://www.w3.org/2000/svg" xmlns:xlink="http://www.w3.org/1999/xlink" width="64" height="33" viewBox="0 0 64 33"><defs><path id="ogzda" d="M1423.16 975.25a6.8 6.8 0 0 1-6.83 6.75 6.8 6.8 0 0 1-6.83-6.75 6.79 6.79 0 0 1 6.83-6.75 6.79 6.79 0 0 1 6.83 6.75zm-3.5 0c0-1.83-1.48-3.3-3.33-3.3a3.32 3.32 0 0 0-3.34 3.3c0 1.82 1.5 3.3 3.34 3.3a3.32 3.32 0 0 0 3.34-3.3zm-27.15-15.96c.65 0 1.17-.52 1.17-1.16v-5.27c0-.64-.52-1.16-1.17-1.16H1384c-.65 0-.9.06-1.48.84l-4.02 5.59c-.46.64-.3 1.16.34 1.16zm12.5-6.75c-.59-.78-.83-.84-1.48-.84h-5.99c-.65 0-1.17.52-1.17 1.16v5.27c0 .64.52 1.16 1.17 1.16h11.15c.65 0 .8-.52.34-1.16zm-6.06 8.86c-.2-.23-.5-.39-.9-.39-1.57 0-1.57 2.32 0 2.32.4 0 .7-.15.9-.38h2.82c1.04 0 1.04-1.55 0-1.55zm14.54-2.11h5.45a7.77 7.77 0 0 1 7.82 7.73v1.34h2.07c.65 0 1.17.53 1.17 1.16v3.06c0 .64-.52 1.16-1.17 1.16h-3.45a9.15 9.15 0 0 0-9.04-7.56 9.14 9.14 0 0 0-9.04 7.56h-17.78a9.14 9.14 0 0 0-9.04-7.56 9.14 9.14 0 0 0-9.05 7.56h-4.25c-.65 0-1.18-.52-1.18-1.16v-3.06c0-.64.53-1.16 1.18-1.16h1.95v-1.34c0-1.86.66-3.56 1.76-4.89l2.05-2.84H1373.72c.66 0 .9-.06 1.49-.83l4.02-5.6c.46-.64.3-1.15-.34-1.15h-1.16a3.9 3.9 0 0 1 3.73-2.71h22.35c1.61 0 2.63.54 3.68 1.93zm-29.68 15.96c0-1.83-1.5-3.3-3.34-3.3a3.32 3.32 0 0 0-3.34 3.3c0 1.82 1.5 3.3 3.34 3.3a3.32 3.32 0 0 0 3.34-3.3zm3.49 0a6.8 6.8 0 0 1-6.83 6.75 6.8 6.8 0 0 1-6.82-6.75 6.79 6.79 0 0 1 6.82-6.75 6.79 6.79 0 0 1 6.83 6.75z"/></defs><g><g clip-path="url(#clip-1304)" transform="translate(-1366 -949)"><use fill="#c00300" xlink:href="#ogzda"/></g></g></svg>