<svg xmlns="http://www.w3.org/2000/svg" xmlns:xlink="http://www.w3.org/1999/xlink" width="21" height="39" viewBox="0 0 21 39"><defs><path id="v7lia" d="M420 450.02v23.1c0 .48-.38.87-.86.87h-7.79a.87.87 0 0 1-.86-.8l-.9-11.63h-.18l-.9 11.63a.87.87 0 0 1-.86.8h-7.78a.87.87 0 0 1-.87-.87v-23.1c0-.2.07-.39.19-.54 0-.01 1.03-1.35 2.06-4.47.75-2.24.96-4.13 1-4.41v-4.73c0-.48.38-.87.86-.87h3.27c.48 0 .86.39.86.87v3.9h4.33v-3.9c0-.48.4-.87.87-.87h3.27c.48 0 .87.39.87.87v4.78c0 .03 0 1.98.88 4.33 1.17 3.12 2.32 4.45 2.33 4.46.14.16.22.37.22.58zm-1.73 14.2h-2.53l.4 5.34h2.13v-3.83h-1.15a.22.22 0 0 1 0-.43h1.15zm-14.9-9.03v-1.8h-2.63v1.8zm-2.63 5.8a8.73 8.73 0 0 0 2.04-2.21c.65-1.05.87-2.14.95-2.72h-3zm3.06-5.8h.62v-1.8h-.62zm1.06 0h3.9v-1.8h-3.9zm4.33 0h.63v-1.8h-.63zm1.06 0h3.74v-1.8h-3.74zm4.18 0h.62v-1.8h-.62zm1.06-1.8v1.8h2.78v-1.8zm-.37 2.67c.08.58.3 1.67.95 2.72a8.87 8.87 0 0 0 2.2 2.32v-5.04zm-1.8-16.3h1.52v-3.02h-1.53zm-9.34 0h1.53v-3.02h-1.53zm-3.24 10.54v2.22h17.53v-2.2a19.08 19.08 0 0 1-2.44-4.73 15.98 15.98 0 0 1-.95-4.08h-11c-.14.87-.42 2.36-.98 4.05a19.7 19.7 0 0 1-2.16 4.74zm0 15.43v3.83h2.17l.4-5.33h-2.57v1.07h1.18a.22.22 0 0 1 0 .43zm17.53 6.52V470h-2.33a.22.22 0 0 1-.22-.2l-.44-5.77c0-.07.02-.12.06-.17.04-.04.1-.07.16-.07h2.77v-1.62a10.04 10.04 0 0 1-2.93-2.93 7.89 7.89 0 0 1-1.1-3.18h-9.63a7.89 7.89 0 0 1-1.1 3.18 9.95 9.95 0 0 1-2.77 2.83v1.72h2.8c.07 0 .12.03.16.07.05.05.07.1.06.17l-.43 5.77c-.01.11-.1.2-.22.2h-2.37v2.25h6.1l.9-11.63c.03-.45.41-.8.87-.8h1.79c.45 0 .83.35.86.8l.9 11.63zm-12.79-21.97v-6.53c0-.24.2-.44.44-.44h7.17c.24 0 .43.2.43.44v6.53c0 .25-.2.44-.43.44h-7.17a.43.43 0 0 1-.44-.44zm.87-.43h6.3v-5.67h-6.3z"/></defs><g><g transform="translate(-399 -435)"><use fill="red" xlink:href="#v7lia"/></g></g></svg>