<svg xmlns="http://www.w3.org/2000/svg" xmlns:xlink="http://www.w3.org/1999/xlink" width="14" height="22" viewBox="0 0 14 22"><defs><path id="8sfda" d="M397.89 281.65c-.94 0-1.7-.78-1.7-1.73l-.01-.92c0-1.12.18-2.04.54-2.77a8.41 8.41 0 0 1 2.18-2.44c1.1-.9 1.75-1.5 1.96-1.78a2.46 2.46 0 0 0-.38-3.36 3.35 3.35 0 0 0-2.35-.8c-.95 0-1.75.28-2.39.83a4.47 4.47 0 0 0-1.32 2.54c-.1.87-.83 1.54-1.71 1.54a1.74 1.74 0 0 1-1.71-1.99c.1-1.62.77-3 2.03-4.13a7.08 7.08 0 0 1 4.94-1.7c2.15 0 3.85.57 5.12 1.71a5.23 5.23 0 0 1 1.9 4c0 .84-.23 1.64-.7 2.4-.46.74-1.45 1.77-2.98 3.06a5.77 5.77 0 0 0-1.47 1.62c-.19.4-.27 1.13-.25 2.19 0 .95-.77 1.73-1.7 1.73zm0 1.3c1.06 0 1.93.89 1.93 1.98 0 1.09-.87 1.97-1.93 1.97a1.95 1.95 0 0 1-1.93-1.97c0-1.1.86-1.98 1.93-1.98z"/></defs><g><g transform="translate(-391 -265)"><use fill="red" xlink:href="#8sfda"/></g></g></svg>