<svg xmlns="http://www.w3.org/2000/svg" xmlns:xlink="http://www.w3.org/1999/xlink" width="32" height="24" viewBox="0 0 32 24"><defs><path id="kbena" d="M416 320.35v8.2h-8.84V332h-14.32v-3.45H384v-8.2a4.85 4.85 0 0 1 3.99-4.74 4.2 4.2 0 0 1 2.58-7.61 4.2 4.2 0 1 1 2.58 7.61 4.9 4.9 0 0 1 3.41 2.46c.2-.07.41-.12.63-.16a4.58 4.58 0 0 1 2.81-8.29 4.58 4.58 0 1 1 2.81 8.29c.22.04.43.1.63.16a4.9 4.9 0 0 1 3.4-2.46 4.2 4.2 0 0 1 2.59-7.61 4.2 4.2 0 1 1 2.58 7.61 4.85 4.85 0 0 1 3.99 4.74zm-6.57-4.88a3.26 3.26 0 0 0 3.28-3.24 3.26 3.26 0 0 0-3.28-3.23 3.26 3.26 0 0 0-3.29 3.23 3.26 3.26 0 0 0 3.29 3.24zm-9.43 2.28a3.55 3.55 0 0 0 3.57-3.52c0-1.94-1.6-3.52-3.57-3.52a3.55 3.55 0 0 0-3.57 3.52c0 1.95 1.6 3.52 3.57 3.52zm-9.43-2.28a3.26 3.26 0 0 0 3.29-3.24 3.26 3.26 0 0 0-3.29-3.23 3.26 3.26 0 0 0-3.28 3.23 3.26 3.26 0 0 0 3.28 3.24zm2.27 7.6a5.24 5.24 0 0 1 2.78-4.6 3.89 3.89 0 0 0-3.37-1.94h-3.35a3.85 3.85 0 0 0-3.89 3.82v7.2h2.2v-7.47h.68v7.47h4.95zm13.21 0a4.2 4.2 0 0 0-4.22-4.16h-3.66a4.2 4.2 0 0 0-4.22 4.16v7.84h2.4v-8.13h.73v8.13h5.84v-8.13h.73v8.13h2.4zm8.94-2.72a3.85 3.85 0 0 0-3.89-3.82h-3.35c-1.45 0-2.7.78-3.37 1.93a5.24 5.24 0 0 1 2.78 4.61v4.48h4.95v-7.47h.67v7.47h2.2z"/></defs><g><g transform="translate(-384 -308)"><use fill="red" xlink:href="#kbena"/></g></g></svg>