<svg xmlns="http://www.w3.org/2000/svg" xmlns:xlink="http://www.w3.org/1999/xlink" width="21" height="25" viewBox="0 0 21 25"><defs><path id="kxmya" d="M394.25 404.01h-3.8a.78.78 0 0 1-.77-.8v-3.4c0-.44.34-.8.77-.8h3.83c.43 0 .77.36.77.8v3.4c-.03.45-.37.8-.8.8zm-3.64-.96h3.51v-3.08h-3.51zm9.77 3.2h-10.24c-.24 0-.46-.22-.46-.47 0-.26.22-.49.46-.49h10.24c.25 0 .47.23.47.49 0 .25-.22.48-.47.48zm0 2.15h-10.24c-.24 0-.46-.22-.46-.48 0-.25.22-.48.46-.48h10.24c.25 0 .47.23.47.48 0 .26-.22.48-.47.48zm0 2.18h-10.24c-.24 0-.46-.22-.46-.48 0-.25.22-.48.46-.48h10.24c.25 0 .47.23.47.48 0 .26-.22.48-.47.48zm-4.1 2.15h-6.14c-.24 0-.46-.22-.46-.48s.22-.48.46-.48h6.14c.25 0 .46.22.46.48s-.21.48-.46.48zM408 401.77v17.95c0 .7-.55 1.28-1.23 1.28h-14.1c-.67 0-1.23-.58-1.23-1.28v-.96h-.99c-.68 0-1.23-.58-1.23-1.29v-.96h-.99c-.68 0-1.23-.57-1.23-1.28v-17.95c0-.7.55-1.28 1.23-1.28h14.1c.67 0 1.23.58 1.23 1.28v.96h.99c.67 0 1.23.58 1.23 1.29v.96h.99c.68 0 1.23.57 1.23 1.28zm-17.4 15.54h13.8v-17.66h-1.3v15.58c0 .45-.34.8-.77.8H390.6zm11.57-2.24v-17.66H388.4v17.66zm-9.34 4.52h13.78v-17.66h-1.3v15.54c0 .45-.33.8-.76.8h-11.72z"/></defs><g><g transform="translate(-387 -396)"><use fill="red" xlink:href="#kxmya"/></g></g></svg>