<svg xmlns="http://www.w3.org/2000/svg" xmlns:xlink="http://www.w3.org/1999/xlink" width="23" height="23" viewBox="0 0 23 23"><defs><path id="bhs9a" d="M391.65 362.3v-2.04h2v2.04zm5.48 0h-2v-2.04h2zm3.5 0h-2v-2.04h2zm-11.92 3.82a7.68 7.68 0 0 1-1.71-4.84c0-4.56 4.11-8.28 9.15-8.28s9.15 3.72 9.15 8.28c0 4.57-4.1 8.28-9.15 8.28a9.9 9.9 0 0 1-4.55-1.1 5.58 5.58 0 0 1-3.3.48 1.02 1.02 0 0 1-.86-.8c-.1-.42.07-.85.44-1.1.34-.22.61-.52.83-.92zm1.5-.67l.31.35-.17.45c-.15.4-.34.77-.56 1.1.51-.08.98-.23 1.4-.5l.39-.25.39.22a8.24 8.24 0 0 0 4.16 1.1c4.18 0 7.58-3 7.58-6.69 0-3.7-3.4-6.68-7.58-6.68-4.19 0-7.59 2.99-7.59 6.68 0 1.57.59 3.02 1.66 4.22zM410 369.1a6.4 6.4 0 0 1-1.71 4.35c.2.54.56 1.14 1.22 1.6.17.12.12.37-.07.4-.69.1-1.86.12-2.94-.56-1.2.7-2.64 1.1-4.18 1.1-3.48 0-6.39-2.05-7.37-4.86.34.02.71.05 1.08.05 5.19 0 9.54-3.35 10.62-7.79a6.69 6.69 0 0 1 3.35 5.71z"/></defs><g><g transform="translate(-387 -353)"><use fill="red" xlink:href="#bhs9a"/></g></g></svg>