<svg xmlns="http://www.w3.org/2000/svg" xmlns:xlink="http://www.w3.org/1999/xlink" width="80" height="57" viewBox="0 0 80 57"><defs><path id="d42xa" d="M739.67 408.33h-6.85a5.94 5.94 0 0 1-4.04 3.18 6.04 6.04 0 0 1-7.74 7.36 6.09 6.09 0 0 1-7.84 4.16c-1.13 4.42-6.86 5.95-10.09 2.73l-1-.99-.99 1a6.02 6.02 0 0 1-10.1-2.74 6.08 6.08 0 0 1-7.97-4.88 6.02 6.02 0 0 1-6.82-6.5 6 6 0 0 1-4.82-3.32h-7.1c-2.32 0-2.32-3.59 0-3.59h6.55a5.96 5.96 0 0 1 1.67-3.32l6.47-6.44c3.81-3.79 10.53-.86 10.27 4.52a6.03 6.03 0 0 1 5.57 7.35 5.99 5.99 0 0 1 4.81 6.41 6.02 6.02 0 0 1 4.79 8.75l1.22 1.21c2.22 2.21 5.66-1.2 3.45-3.42l-9.36-9.31c-1.65-1.64.9-4.18 2.55-2.54l11.18 11.12c.46.46 1.07.72 1.72.72 2.13 0 3.22-2.65 1.72-4.15l-11.18-11.12c-1.64-1.63.9-4.17 2.55-2.54l13 12.95c2.23 2.21 5.67-1.22 3.45-3.44l-13-12.93c-1.65-1.64.9-4.18 2.54-2.54l11.43 11.37c2.22 2.2 5.66-1.22 3.44-3.43l-17.73-17.65h-9.13c-3.31 3.1-8 5.7-12.69 4.74-2.05-.43-4.06-1.62-4.93-3.6-.95-2.13-.18-4.46 1.42-6.05l6.87-6.84h-5.68c-1 0-2.04 1.03-2.74 1.63-1.11.95-2.15 1.98-3.23 2.96-1.97 1.79-4.36 3.83-7.19 3.83h-9.8c-2.33 0-2.33-3.6 0-3.6h9.8c1.16 0 2.27-.83 3.14-1.5 1.1-.86 2.11-1.84 3.14-2.8 1.85-1.73 4.13-4.11 6.88-4.11h29.43c2.74 0 5.03 2.38 6.88 4.12 1.1 1.03 2.19 2.08 3.4 2.99.81.6 1.82 1.3 2.87 1.3h9.81c2.32 0 2.32 3.6 0 3.6h-9.8c-2.84 0-5.22-2.04-7.2-3.83-1.07-.98-2.11-2.01-3.22-2.96-.7-.6-1.75-1.63-2.75-1.63h-17c-1.36 0-1.98.34-2.54.9l-8.52 8.48c-1.59 1.57-.3 3.13 1.52 3.56.75.17 1.55.18 2.32.1 1.47-.18 2.87-.73 4.14-1.47.91-.53 1.77-1.17 2.56-1.86.7-.61 1.35-1.55 2.37-1.55h10.61c.48 0 .94.2 1.28.53l18.26 18.17c.94.94 1.49 2.1 1.68 3.32h6.29c2.32 0 2.32 3.59 0 3.59zm-64.59-.94a2.5 2.5 0 0 0 3.44 0l6.47-6.44c2.22-2.21-1.22-5.64-3.44-3.43l-6.47 6.44a2.42 2.42 0 0 0 0 3.43zm5.41 6.54c.95.95 2.5.95 3.44 0l6.77-6.73c2.22-2.2-1.23-5.63-3.45-3.42l-6.76 6.72a2.42 2.42 0 0 0 0 3.43zm14.9.52c2.23-2.21-1.21-5.64-3.44-3.43l-4.64 4.63c-1.5 1.5-.4 4.13 1.72 4.13.65 0 1.26-.25 1.72-.7l4.65-4.63zm5.45 6.51c1.5-1.5.42-4.14-1.72-4.14-.64 0-1.26.26-1.72.71l-2.29 2.28c-2.18 2.22 1.25 5.62 3.46 3.42l2.27-2.27z"/></defs><g><g transform="translate(-662 -371)"><use fill="#c00300" xlink:href="#d42xa"/></g></g></svg>