<svg xmlns="http://www.w3.org/2000/svg" xmlns:xlink="http://www.w3.org/1999/xlink" width="37" height="38" viewBox="0 0 37 38"><defs><path id="36kaa" d="M821.23 965.08l-.2.05c.61.84 1.09 1.67 1.26 2.4a9.71 9.71 0 0 1-.23 5.82c-.87 2.35-6.4 5.12-6.4 5.12l-.97-2.24s3.21-1.64 4.02-2.54c1.49-1.68 2.8-4.25-.67-8.2-2.73.22-6.48.33-10.04.37v3.23a6.38 6.38 0 0 1 4.69 6.27c0 3.66-2.6 6.63-6.18 6.63a6.57 6.57 0 0 1-6.5-6.63c0-2.7 1.58-5.02 3.84-6.06l-.05-3.44-3.37-.04a6.46 6.46 0 0 1-5.92 3.9c-3.59 0-6.5-3.01-6.5-6.68 0-3.66 2.88-6.6 6.47-6.6 2.84 0 5.21 1.44 6.1 4.48h3.07c.02-5.23.03-11.12.58-12.88 1.01-3.23 3.77-3.87 3.77-3.87v16.74h5.53c-1.18-1.59-1.85-3.63-1.96-6.4-.3-7.46 9.17-10.5 9.17-10.5l.93 2.38s-9.38 2.27-7.58 9.6c.25.98.65 2.17 1.8 3.56.27.33.74.8 1.29 1.36h7.83s-.63 3.13-3.78 4.17zm-22.86-2a3.9 3.9 0 0 0-3.86-3.95 3.9 3.9 0 0 0-3.86 3.95 3.9 3.9 0 0 0 3.87 3.95 3.9 3.9 0 0 0 3.85-3.96zm6.42.33c0 .67.53 1.22 1.19 1.22a1.2 1.2 0 0 0 1.19-1.22 1.2 1.2 0 0 0-1.2-1.21 1.2 1.2 0 0 0-1.18 1.21zm1.73 8a3.9 3.9 0 0 0-3.86 3.95 3.9 3.9 0 0 0 3.86 3.94 3.9 3.9 0 0 0 3.86-3.94 3.9 3.9 0 0 0-3.86-3.95zm14.28-6.39c-1.1-1.5-2.68-3.05-3.84-4.21h-3.38c1.5 2.01 3.35 3.28 4.31 4.34l.24.27z"/></defs><g><g transform="translate(-788 -944)"><use fill="#c00300" xlink:href="#36kaa"/></g></g></svg>