<svg xmlns="http://www.w3.org/2000/svg" xmlns:xlink="http://www.w3.org/1999/xlink" width="50" height="23" viewBox="0 0 50 23"><defs><path id="6klga" d="M418.88 1245.33l5.27.1a2.1 2.1 0 0 1 1.45.62l7.78 7.77c.4.4.63.94.63 1.5v6.04c0 1.17-.95 2.12-2.12 2.12h-1.95a4.73 4.73 0 0 1-9.14 0h-1.96c-1.17 0-2.1-.95-2.1-2.12v-13.91c0-.57.22-1.12.63-1.52.4-.39.95-.6 1.51-.6zm6.49 19.36a2.4 2.4 0 1 0-2.41-2.41 2.42 2.42 0 0 0 2.4 2.38zm-6.19-3.64h1.62a4.73 4.73 0 0 1 9.14 0h1.62v-5.6l-7.58-7.58-4.8-.08zm-34-13.53h6.38v-1.4c0-1.18.94-2.12 2.11-2.12h20.03c1.16 0 2.1.95 2.1 2.11v15.25c0 1.17-.94 2.11-2.1 2.12h-9.55a4.73 4.73 0 0 1-9.14 0h-1.34a2.12 2.12 0 0 1-2.11-2.12v-3.93h-.41a1.17 1.17 0 0 1 0-2.34h5.81a1.17 1.17 0 0 1 0 2.34h-2.93v3.59h.98a4.73 4.73 0 0 1 9.14 0h9.2v-14.56h-19.33v1.06h11.17a1.17 1.17 0 0 1 0 2.34h-20.01a1.17 1.17 0 0 1 0-2.34zm14.4 12.31a2.4 2.4 0 1 0 2.4 2.43v-.01c0-1.33-1.07-2.4-2.4-2.41zm-11.26-8.52h13a1.17 1.17 0 0 1 0 2.35h-13a1.17 1.17 0 0 1 0-2.35z"/></defs><g><g transform="translate(-384 -1244)"><use fill="#fff" xlink:href="#6klga"/></g></g></svg>