<svg xmlns="http://www.w3.org/2000/svg" xmlns:xlink="http://www.w3.org/1999/xlink" width="32" height="35" viewBox="0 0 32 35"><defs><path id="31gya" d="M724 1213.22c.64 0 1.15.23 1.54.7.37.47.57 1.14.57 2.01 0 .87-.2 1.54-.58 2.01-.39.47-.89.7-1.5.7-.62 0-1.12-.22-1.52-.68-.4-.45-.6-1.13-.6-2.03 0-.87.2-1.54.57-2.01.39-.47.9-.7 1.53-.7zm14-1.68v8.7a3.16 3.16 0 0 1-3.14 3.16h-1.7v2.66a2.94 2.94 0 0 1-2.92 2.94h-21.32a2.94 2.94 0 0 1-2.93-2.94V1204c0-1.43.78-3.34 1.78-4.35l3.78-3.84c1-1.01 2.9-1.81 4.31-1.81h14.38a2.94 2.94 0 0 1 2.92 2.94v11.45h1.7a3.16 3.16 0 0 1 3.14 3.15zm-28.93-10.46c.1.24.4.38.82.39l1.48.04c.85.02 1.56-.66 1.58-1.51l.05-1.93c0-.52-.17-.83-.48-.84-.2 0-.42.12-.65.37l-2.5 2.62c-.29.3-.4.61-.3.86zm22.74 22.32h-18.3a3.16 3.16 0 0 1-3.14-3.16v-8.7a3.16 3.16 0 0 1 3.13-3.16h18.31v-11.44c0-.87-.7-1.58-1.57-1.58h-14.38c-.29 0-.75.05-.96.3-.21.24-.4.7-.4 1.35v3.3a2.49 2.49 0 0 1-2.48 2.48h-3.19c-.58 0-1-.03-1.21.1-.22.14-.28.74-.28 1.1v22.07c0 .87.71 1.58 1.58 1.58h21.32c.87 0 1.57-.7 1.57-1.58zm-5.14-10.52a3.64 3.64 0 0 0-2.67-1.03c-1.1 0-1.98.34-2.67 1.04-.68.7-1.03 1.71-1.03 3.04 0 1.4.36 2.42 1.07 3.1.71.66 1.6.99 2.64.99 1.1 0 2-.35 2.68-1.06.69-.7 1.03-1.71 1.03-3.03 0-1.34-.35-2.36-1.05-3.05zm-9.15.2c-.53-.7-1.31-1.03-2.36-1.03h-3.4v7.76h3.34a2.8 2.8 0 0 0 2.37-1.12 4.8 4.8 0 0 0 .84-2.94c0-1.1-.27-2-.8-2.67zm13.84 2.88c0-.85.17-1.51.52-2 .35-.47.81-.71 1.4-.71.94 0 1.51.45 1.71 1.34h1.61a2.84 2.84 0 0 0-1-1.96 3.36 3.36 0 0 0-2.33-.78c-1.1 0-1.97.37-2.6 1.12a4.44 4.44 0 0 0-.95 2.97c0 1.29.32 2.29.95 3 .64.72 1.5 1.08 2.58 1.08.96 0 1.73-.28 2.31-.84.58-.56.93-1.23 1.04-2.03H735c-.22.98-.79 1.46-1.71 1.46-.6 0-1.08-.24-1.42-.72a3.33 3.33 0 0 1-.5-1.93zm-15.12-1.96c.28.4.42 1.03.42 1.86 0 .81-.15 1.45-.46 1.91-.31.47-.74.7-1.3.7h-1.56v-5.08h1.6c.58 0 1.01.2 1.3.6z"/></defs><g><g transform="translate(-706 -1194)"><use fill="red" xlink:href="#31gya"/></g></g></svg>