<svg xmlns="http://www.w3.org/2000/svg" xmlns:xlink="http://www.w3.org/1999/xlink" width="51" height="30" viewBox="0 0 51 30"><defs><path id="bymna" d="M637.65 235.17c-.22 0-.05.37-.1.52-1.2.19-1.73 1.08-2.25 1.93-.24.4.63.6.62.72 3.23 2.52 30.65 8.53 37.86 6.22.3-.02.52.03.61.2a76.3 76.3 0 0 0 4.5-4.9c-.04-.05-3.8 3.59-3.98 3.6-.36 0 .6-1.66.69-2.23.09-.58 4.44-4.29 4.92-3 .62 1.7.6 2.66.2 3.24l-4.39 6.36s-1.06.64-1.63.92c-.1 5.54-2.96 8.34-6.23 10.72-.57-.25-.48-.07-.92.2-2.7.12-6.37.56-9.49.2-1.69-.19-3.58-.33-4.8-.91-1.1-.53-2.47-2.92-2.75-3.37-.26-.41-.54-.84-.82-1.33-.56-.99-.94-2.22-1.42-2.86-.3-.38-1.08-.92-1.74-.81-.98.15-1.04 1.52-1.43 2.45-.48 1.14-.98 2.16-1.9 2.54-1.91.77-4.17-.78-5.96-1.93a23.95 23.95 0 0 1-4.18-3.27c-.41-.41-.83-2.15-1.02-3.06-.38-1.76-.6-3.85-.62-5.72a5.46 5.46 0 0 1-1.42-.81l.2-2.45 3.27-3.68 3.26-1.93s2.8-1.53 4.19-2.25c.37-.07.54.07.71.2 2.4-1.3 5.52-.52 6.84.51 1 .79 4.48 4.79 5.3 5.41.24.19.79.23.72.92-.07.7-.95 1.48-2.14 1.23a3.58 3.58 0 0 1-1.13-.82c-1.6-1.7-2.7-6.4-6.53-6.23-1.1.05-1.47.36-2.55.72-.17.2-.21.53-.4.71-1.66.6-2.76 2.03-4.09 2.04zm35.41 13.65c-13.8 1.27-27.25-2.94-35.9-5.49a53.03 53.03 0 0 1-4.84-1.65c.13.91.3 7.01 1.7 8.42a17.19 17.19 0 0 0 4.07 2.96c1.7.88 3.24 1.92 4.6 1.64.83-.17 1.28-1.39 1.74-2.27.37-.7.42-2.47 1.35-2.6.63-.07 2.28.33 2.81.83.69.65 1.66 2.76 2.1 3.6.57 1.1 1.84 3.33 2.9 3.74 1.14.44 2.94.55 4.54.7 2.95.27 6.85-.07 9.41-.16.3-9.8 1.03-11.6.71-.07 3.1-1.82 5.59-5.3 5.69-9.55.08-.03-.8-.1-.88-.1z"/></defs><g><g transform="translate(-630 -230)"><use fill="red" xlink:href="#bymna"/></g></g></svg>