<svg xmlns="http://www.w3.org/2000/svg" xmlns:xlink="http://www.w3.org/1999/xlink" width="49" height="39" viewBox="0 0 49 39"><defs><path id="89iqa" d="M657.8 365.75a3.95 3.95 0 0 1 1.55 2.72v.3l-.92 11.43a5.71 5.71 0 0 0 5.67 6.28h9.49c5.57 0 5.8 6.91 5.8 10.32a3.8 3.8 0 0 1 1.6 2.67v.98a2.92 2.92 0 0 1-2.61 3.16h-.14l-19.76.05c-.1.05-.14 0-.24 0l-5.76-.92a2.28 2.28 0 0 1-2.08 1.26h-16.03a2.38 2.38 0 0 1-2.37-2.48v-4.38c0-1.17.82-2.14 1.93-2.39v-23.11a2.4 2.4 0 0 1 1.9-2.39l18.92-4.18a4.02 4.02 0 0 1 3.05.68zm-2.47 2.24l-2.27.48-.3 2.1c0 2.38-1.69 4.28-4.01 4.81l-11.91 2.39v16.98h8.71c.83 0 1.46.64 1.46 1.46 0 .83-.63 1.46-1.46 1.46H634.9v3.41h15.01c0-.44.2-.83.53-1.12.3-.3.73-.39 1.17-.34l7.06 1.17 16.61-.05v-.97a1.28 1.28 0 0 0-.24-.44h-17.82c-.82 0-1.45-.63-1.45-1.46s.63-1.46 1.45-1.46h8.5c-.01-1.17 0-3.08.14-4.6.08-.84.31-1.65.58-2.36h-2.25a8.68 8.68 0 0 1-8.57-9.44l.88-11.24c-.1-.34-.3-.49-.4-.59a1.09 1.09 0 0 0-.77-.2zm18.35 28.42c-.1-4.87-.96-6.96-2.9-6.96h-2.24c-.33.7-.66 1.62-.75 2.55a48.05 48.05 0 0 0-.14 4.4zm-18.25-23.55a1.05 1.05 0 1 1-2.09 0c0-.58.47-1.05 1.04-1.05.58 0 1.05.47 1.05 1.05zm-.38 3.46c0 .58-.47 1.04-1.04 1.04a1.05 1.05 0 0 1 0-2.1c.57 0 1.04.48 1.04 1.06zm-.22 3.2c0 .57-.47 1.04-1.04 1.04-.58 0-1.05-.47-1.05-1.05a1.05 1.05 0 1 1 2.09 0z"/></defs><g><g transform="translate(-632 -365)"><use fill="red" xlink:href="#89iqa"/></g></g></svg>