<svg xmlns="http://www.w3.org/2000/svg" xmlns:xlink="http://www.w3.org/1999/xlink" width="30" height="40" viewBox="0 0 30 40"><defs><path id="d5lpa" d="M411.1 224c1.77 0 3.26 1.3 3.62 3a3.1 3.1 0 0 1 1.61-.29 3.87 3.87 0 0 1 3.46 3.89v10.73l2.13-2.23c.68-.69 1.6-1.1 2.61-1.1.85 0 1.61.3 2.21.82a3.63 3.63 0 0 1 .69 4.7l-7.76 12.06c-.49.77-.77 1.7-.77 2.67v4.53c0 .7-.52 1.22-1.2 1.22h-16.53c-.64 0-1.2-.53-1.12-1.22v-3.15c0-1.99-.32-3.93-.97-5.83a20.7 20.7 0 0 1-1.08-6.64V237a3.29 3.29 0 0 1 3.25-3.32c.28 0 .57.04.85.12v-2.6a3.81 3.81 0 0 1 3.46-3.88c.56-.04 1.08.04 1.56.24a3.72 3.72 0 0 1 3.7-3.56zm-1.6 3.8v11.67c0 .68-.53 1.21-1.21 1.21-.68 0-1.2-.53-1.2-1.21v-8.38c-.05-.77-.69-1.38-1.41-1.34-.57 0-1 .44-1.17 1.01-.04.12-.04.2-.04.33v11.65c0 .17 0 .29-.04.45-.04.24-.12.44-.24.6-.04.09-.08.17-.16.25-.2.24-.48.45-.8.28v-.04c-.69 0-1.21-.52-1.21-1.21v-6.03c0-.49-.4-.9-.85-.9-.44 0-.84.41-.84.9v10.08c0 1.98.32 3.92.96 5.83a20.7 20.7 0 0 1 1.09 6.64v1.94h10.1v-2.19c-.09.04-.21.04-.3.04h-5.5c-.68 0-1.2-.52-1.2-1.21s.52-1.22 1.2-1.22c0 0 7.8.05 7.92.09a6.93 6.93 0 0 1 1.05-2.8l9.77-11.98c.32-.49.24-1.18-.2-1.54-.4-.32-1.17-.24-1.53.12l-4.22 4.33c-.37.37-.89.49-1.33.29-.48-.2-.76-.65-.76-1.14V230.6c0-.77-.53-1.42-1.21-1.46-.76-.04-1.4.6-1.4 1.38l.03 8.38c0 .65-.52 1.21-1.2 1.21-.69 0-1.21-.52-1.21-1.21l-.04-8.38v-2.71c0-.77-.56-1.38-1.29-1.38h-.28c-.68 0-1.28.6-1.28 1.38z"/></defs><g><g transform="translate(-398 -224)"><use fill="#fff" xlink:href="#d5lpa"/></g></g></svg>