<svg xmlns="http://www.w3.org/2000/svg" xmlns:xlink="http://www.w3.org/1999/xlink" width="44" height="34" viewBox="0 0 44 34"><defs><path id="9sfqa" d="M428.57 322.42L424.94 334l-4.12-1.58.99-6.43-11.55-2.93-20.76.71-2.5.02.23-2.52 6.17-3.47c.06-1.2.37-4.27 1.95-7.52.5-6.26 2.56-8 2.8-8.17l.19-.14 9.43-1.29c1.28-.3 2.67-.53 4.18-.66l.77-.02c13.78 0 16.67 16.63 16.88 17.95l1.4 4.39zm-30.78-15.9a16.79 16.79 0 0 1 3.66-3.2l-2.33.32c-.25.3-.84 1.14-1.33 2.88zm-7.5 15.46l38.28-1.32-.75-2.4c-.02-.16-2.5-17.03-15.75-16.48-17.03 1.45-16.9 15.9-16.88 16.52l.01.53-5.14 2.9zm36.37.5l-10.08.36 7.26 1.84-1.02 6.61.96.37zm-4.45-13.17a.91.91 0 0 1-1.23.35c-.1-.05-2.95-2.7-11-.66-3.98 1-7.36 4.13-9.62 9.2a.9.9 0 0 1-1.2.46.88.88 0 0 1-.46-1.17c2.48-5.55 5.98-9.1 10.38-10.57 6.5-2.15 12.52 1.06 12.77 1.2.44.23.6.77.36 1.2zm-3.75 3.2a.53.53 0 0 1-.72.2c-.05-.03-1.88-1.42-6.57-.23-2.33.59-4.14 2.25-5.47 5.21a.53.53 0 0 1-.69.27.51.51 0 0 1-.27-.68c1.45-3.24 3.48-5.32 6.06-6.17 3.78-1.26 7.3.62 7.45.7.25.13.35.45.2.7z"/></defs><g><g transform="translate(-387 -300)"><use fill="red" xlink:href="#9sfqa"/></g></g></svg>