<svg xmlns="http://www.w3.org/2000/svg" xmlns:xlink="http://www.w3.org/1999/xlink" width="38" height="40" viewBox="0 0 38 40"><defs><path id="se9va" d="M421.76 400.28a.75.75 0 0 1-1.05.08.73.73 0 0 1-.08-1.04 4.39 4.39 0 0 0 .96-1.96.75.75 0 0 1 1.46.33 5.8 5.8 0 0 1-.81 1.99c-.15.21-.31.42-.48.6zm5.4-9.98c.18.85.28 1.68.26 2.32a34.84 34.84 0 0 1-.62 5.25c-.3 1.43-1.4 3.63-2.45 4.89l-.22.27a6.22 6.22 0 0 1-4.87 1.94l-4.67-.54a2.98 2.98 0 0 1-2.63-3.28l1.8-15.12a3 3 0 0 1 3.32-2.59l4.68.54a6.16 6.16 0 0 1 4.09 2.7c.1-.8.15-1.6.15-2.41 0-3.14-.7-5.93-1.92-8.33a2.97 2.97 0 0 1-4.73.01 12.83 12.83 0 0 0-10.35-5.08c-4.17 0-7.86 1.83-10.39 5.14a3 3 0 0 1-4.16.58c-.22-.17-.4-.36-.57-.57a18.22 18.22 0 0 0-1.77 10.27 6.2 6.2 0 0 1 3.83-2.3l4.68-.55.35-.02a3 3 0 0 1 2.97 2.61l1.8 15.12c.2 1.61-1 3.1-2.63 3.28 0 0-4.98.57-5.14.57a6.22 6.22 0 0 1-4.4-1.98l-.22-.26a13.73 13.73 0 0 1-2.45-4.9c-.3-1.42-.58-3.78-.62-5.24-.02-.8.14-1.87.4-2.91a22.38 22.38 0 0 1-.68-5.44c0-5.68 2.12-10.52 5.57-13.9a18.54 18.54 0 0 1 9.65-5c1.22-.24 2.48-.37 3.77-.37h.02a19.32 19.32 0 0 1 4.47.52c3.44.78 6.52 2.45 8.95 4.84 3.45 3.39 5.57 8.23 5.57 13.9 0 2.1-.29 4.13-.83 6.04zm-33.85-2.14a11.91 11.91 0 0 0-1.03 4.41c.03 1.34.3 3.58.58 4.9a11.98 11.98 0 0 0 2.04 4.04l.22.27a4.23 4.23 0 0 0 2.86 1.25l4.9-.56a1 1 0 0 0 .88-1.1l-1.8-15.1a1 1 0 0 0-1-.88l-.1.01-1.52.18 1.73 14.52c.04.34-.2.65-.55.69a.62.62 0 0 1-.69-.54l-1.73-14.53-1.93.22a4.18 4.18 0 0 0-2.7 1.91zm32.12 4.4c.03-1.13-.46-3.23-1.04-4.4l-.15-.3a4.18 4.18 0 0 0-2.71-1.92l-2.18-.25-1.72 14.5a.62.62 0 0 1-.7.53.62.62 0 0 1-.54-.68l1.72-14.5-1.38-.15a1 1 0 0 0-.99.87l-1.8 15.12c-.04.35.12.6.22.72a1 1 0 0 0 .66.37l4.68.55h.23c.99 0 2.3-.56 2.86-1.24l.21-.27c.84-1 1.8-2.93 2.05-4.05a33 33 0 0 0 .58-4.9z"/></defs><g><g transform="translate(-390 -365)"><use fill="red" xlink:href="#se9va"/></g></g></svg>