<svg xmlns="http://www.w3.org/2000/svg" xmlns:xlink="http://www.w3.org/1999/xlink" width="40" height="39" viewBox="0 0 40 39"><defs><path id="1z7ba" d="M408.9 542.47v1.54H392v-1.54a2.95 2.95 0 0 1 2.94-2.96h3.61l8.58-32.93a2.11 2.11 0 0 1 2.05-1.58c.69 0 1.33.32 1.76.88.42.55.56 1.24.4 1.9l-8.28 31.73h2.9a2.95 2.95 0 0 1 2.93 2.96zm-8.62-3.16h1.16l8.32-31.94a.57.57 0 0 0-.1-.5.6.6 0 0 0-.48-.24.48.48 0 0 0-.48.36zm-6.65 3.06h10.39a1.32 1.32 0 0 0-1.31-1.22h-7.77c-.7 0-1.26.54-1.31 1.22zm13.64 0a1.32 1.32 0 0 0-1.32-1.22h-.62c.19.37.3.78.31 1.22zm24.73-17.6v11.3a2.2 2.2 0 0 1-2.2 2.22h-.85l-.7 5.72h-17.64l-2.33-19.2.28-2.86h4.1c.27-.92 1-1.64 1.9-1.92.04-2.19.46-5.82 2.64-8.02a5.48 5.48 0 0 1 4.03-1.66c3.7 0 6.7 4.12 6.71 9.19h-1.62c0-4.17-2.3-7.56-5.09-7.56-1.14 0-2.11.4-2.88 1.18-1.33 1.34-2.11 3.84-2.16 6.87.91.28 1.63 1 1.9 1.92h2.15v-1.3h7.67a4.1 4.1 0 0 1 4.09 4.12zm-4.68 13.52h-4.88c-1.21 0-2.2-1-2.2-2.22v-12.49h-3.65v-.81c0-.68-.54-1.23-1.21-1.23-.67 0-1.22.55-1.22 1.23v.81h-4.13l-.12 1.22.23 1.91h8.55v1.64h-8.35l.2 1.63h8.15v1.64h-7.95l.94 7.76h7.82V541h-7.62l.16 1.36h14.78zm3.06-13.52c0-1.37-1.11-2.48-2.47-2.48h-6.05v13.78c0 .32.26.58.58.58h.74v-7.72h1.62v7.72h5c.32 0 .58-.26.58-.58z"/></defs><g><g transform="translate(-392 -505)"><use fill="red" xlink:href="#1z7ba"/></g></g></svg>