<svg xmlns="http://www.w3.org/2000/svg" xmlns:xlink="http://www.w3.org/1999/xlink" width="50" height="33" viewBox="0 0 50 33"><defs><path id="6oeja" d="M662.82 318.04a7.69 7.69 0 0 1-7.65 7.71 7.69 7.69 0 0 1-7.64-7.71 7.69 7.69 0 0 1 7.64-7.72 7.69 7.69 0 0 1 7.65 7.72zm-1.82 0a6 6 0 0 0-.58-2.57l-4.47 2.6H661v-.03zm-5.46-5.87v4.37l2.17-3.8a5.74 5.74 0 0 0-2.17-.57zm4.47 2.59a5.9 5.9 0 0 0-1.59-1.6l-2.17 3.79zm-5.28 9.14v-4.28l-2.12 3.7c.65.32 1.36.53 2.12.58zm-5.37-5.41c.06.76.26 1.48.58 2.14l3.67-2.14zm1 2.85a5.9 5.9 0 0 0 1.54 1.57l2.12-3.7zm10.03-.68c.33-.66.53-1.4.6-2.17h-4.33zm-10.48-5.15c-.31.66-.5 1.39-.55 2.15h4.25zm1.96-2.32a5.9 5.9 0 0 0-1.56 1.6l3.7 2.16zm6.52 9.75a5.9 5.9 0 0 0 1.58-1.57l-3.72-2.16zm-3.66-10.77c-.77.06-1.5.27-2.16.6l2.16 3.77zm.81 11.74a5.74 5.74 0 0 0 2.14-.56l-2.14-3.73zm17.44-7.8c-.13.91-.33 2.01-.66 3.02h3.86l1.05 1.85-2.62 4.6-1.05.62h-5.75c-3.03 2.48-7.27 3.8-12.61 3.8-5.35 0-9.59-1.32-12.63-3.8h-5.8l-1.04-.63-2.62-4.6 1.05-1.84h3.87a18.71 18.71 0 0 1-.66-3.03H630v-7.06h7.71a7.91 7.91 0 0 1 2.94-3.1c.2-.14.4-.25.57-.38l2.13-1.57c2.47-1.83 5.28-3.9 7-5.54 1.35-1.3 3.82-1.45 4.82-1.45 1 0 3.47.14 4.83 1.45 1.71 1.64 4.52 3.71 7 5.54l2.13 1.56.57.4c.89.6 2.2 1.53 2.93 3.09H680v7.06zm.2-2.48h4.46v-2.12h-4.46zm-36-2.12h-4.73v2.12h4.73zm.29 12.21h2.8c-.5-.64-.93-1.37-1.28-2.1h-2.74zm29.64-.2c3.73-3.8 3.68-9.28 3.66-11.35v-.35c0-2.2-1.18-3-2.42-3.83l-.67-.47-2.1-1.56c-2.54-1.87-5.42-3.99-7.24-5.74-.4-.38-1.55-.78-3.17-.78-1.62 0-2.77.4-3.16.78-1.83 1.75-4.7 3.87-7.24 5.74l-2.11 1.56-.67.47c-1.24.84-2.42 1.63-2.42 3.83v.33c-.01 2.06-.06 7.55 3.69 11.36 2.62 2.67 6.63 4.02 11.94 4.02 5.3 0 9.3-1.35 11.9-4zm4.27-1.9a11.6 11.6 0 0 1-1.28 2.1h2.77l1.22-2.1z"/></defs><g><g transform="translate(-630 -297)"><use fill="red" xlink:href="#6oeja"/></g></g></svg>