<svg xmlns="http://www.w3.org/2000/svg" xmlns:xlink="http://www.w3.org/1999/xlink" width="34" height="27" viewBox="0 0 34 27"><defs><path id="zz0wa" d="M423.2 1397.44l1.85-1.66c.48-.43 1.22-.4 1.65.1.43.48.4 1.22-.09 1.65l-3.83 3.45a1.16 1.16 0 0 1-1.56 0l-3.82-3.45a1.18 1.18 0 0 1-.09-1.66 1.17 1.17 0 0 1 1.65-.09l1.9 1.72a11.02 11.02 0 0 0-10.96-10.15c-3.78 0-7.25 1.91-9.28 5.12-.35.55-1.08.71-1.62.36a1.18 1.18 0 0 1-.36-1.62 13.29 13.29 0 0 1 11.26-6.21c7.04 0 12.82 5.5 13.3 12.44zm-25.2-1.72c.28 0 .56.1.78.3l3.82 3.45a1.18 1.18 0 0 1-.78 2.05c-.28 0-.56-.1-.78-.3l-2.03-1.83a10.96 10.96 0 0 0 10.96 10.26c3.78 0 7.26-1.91 9.29-5.12.34-.55 1.07-.7 1.61-.36.55.35.71 1.08.36 1.62a13.27 13.27 0 0 1-11.26 6.21c-3.56 0-6.9-1.4-9.43-3.92a13.3 13.3 0 0 1-3.86-8.42l-1.73 1.55c-.48.44-1.22.4-1.65-.09-.43-.48-.4-1.22.09-1.66l3.83-3.44c.22-.2.5-.3.78-.3z"/></defs><g><g transform="translate(-393 -1385)"><use fill="#fff" xlink:href="#zz0wa"/></g></g></svg>