<svg xmlns="http://www.w3.org/2000/svg" xmlns:xlink="http://www.w3.org/1999/xlink" width="30" height="31" viewBox="0 0 30 31"><defs><path id="w98la" d="M425.2 1335.69h-1.08v3.6c0 1.5-1.21 2.7-2.7 2.7h-21.7a2.71 2.71 0 0 1-2.72-2.7v-19.4a3.3 3.3 0 0 1 3.3-3.3h1.2v-3.3a2.29 2.29 0 0 1 2.28-2.29h11.45c1.27 0 2.3 1.02 2.3 2.29v3.3h1.15c1.49 0 2.69 1.2 2.69 2.69v2.3h.07c1.48 0 2.68 1.2 2.68 2.69v3.62h1.07c1 0 1.8.8 1.8 1.8v4.2c0 1-.8 1.8-1.8 1.8zm-7.68-17.48v3.37h2.23v-2.3c0-.58-.47-1.06-1.05-1.07zm-1.61-4.93c0-.37-.3-.67-.68-.66h-1.54v8.96h2.22v-8.3zm-12.8 0v8.3h8.96v-8.96h-8.3c-.36 0-.66.3-.66.67zm-4.5 6.62c0 .93.76 1.68 1.7 1.68h1.18v-3.37h-1.19c-.93 0-1.68.76-1.68 1.69zm23.9 15.79h-3.96a3.97 3.97 0 0 1-3.99-3.64 3.87 3.87 0 0 1 3.9-4.16h4.05v-3.62c0-.6-.48-1.07-1.07-1.07H400.3c-.59 0-1.17-.17-1.68-.47v16.56c0 .6.49 1.1 1.1 1.1h21.68c.6 0 1.1-.5 1.1-1.1zm2.88-6a.2.2 0 0 0-.2-.19h-6.9a2.29 2.29 0 0 0-2.13 2.44 2.35 2.35 0 0 0 2.4 2.14h6.63c.1 0 .2-.09.2-.2z"/></defs><g><g transform="translate(-397 -1311)"><use fill="#fff" xlink:href="#w98la"/></g></g></svg>