<svg xmlns="http://www.w3.org/2000/svg" xmlns:xlink="http://www.w3.org/1999/xlink" width="40" height="31" viewBox="0 0 40 31"><defs><path id="1n4ma" d="M403.87 1028.95h-6.94a1 1 0 0 1-1-1.01 1 1 0 0 1 1-1.01h6.94a1 1 0 0 1 1 1 1 1 0 0 1-1 1.02zm14.88 0h-6.94a1 1 0 0 1-1-1.01 1 1 0 0 1 1-1.01h6.94a1 1 0 0 1 1 1 1 1 0 0 1-1 1.02zm-14.88 4.05h-6.94a1 1 0 0 1-1-1.01 1 1 0 0 1 1-1.01h6.94a1 1 0 0 1 1 1 1 1 0 0 1-1 1.02zm0 4.05h-6.94a1 1 0 0 1-1-1.01 1 1 0 0 1 1-1.01h6.94a1 1 0 0 1 1 1 1 1 0 0 1-1 1.02zm0 4.05h-6.94a1 1 0 0 1-1-1.01 1 1 0 0 1 1-1.01h6.94a1 1 0 0 1 1 1 1 1 0 0 1-1 1.02zm-.09 6.07h-9.33a2.5 2.5 0 0 1-2.48-2.53v-21.26a2.5 2.5 0 0 1 2.48-2.53h9.33a1 1 0 0 1 .1 0c1.61 0 3.06.8 3.96 2.03a4.92 4.92 0 0 1 4.06-2.03h9.34a2.5 2.5 0 0 1 2.47 2.53v7.52h-1.98v-7.52a.5.5 0 0 0-.5-.5h-9.33a1 1 0 0 1-.09 0 3.01 3.01 0 0 0-2.98 3.03v20.26c.35-.27.74-.49 1.15-.66v2.32c-.5.4-.87.96-1.04 1.62a1 1 0 0 1-.96.76h-.28a1 1 0 0 1-.96-.76 2.98 2.98 0 0 0-2.96-2.28zm3.07-21.26a3.01 3.01 0 0 0-3.07-3.03h-9.33a.5.5 0 0 0-.5.5v21.26c0 .28.22.51.5.51h9.33a1 1 0 0 1 .1 0c1.1 0 2.13.38 2.97 1.02v-20.26zm4.96 7.1a1 1 0 0 1-1-1.02 1 1 0 0 1 1-1.01h2.77l-2.11 2.02zm1.76 3.04l-2.77-.02 3.78-3.95-.02 2.93c-.02.59-.46 1.04-1 1.04zm6.28 5.93h5.83c-.02 4.11-.02 8.26-.04 8.85h-13.7c-.65 0-1.18-.52-1.18-1.15v-12.95h2.79c.9 0 1.65-.77 1.65-1.72l.03-2.95h9.26c.64 0 1.17.52 1.17 1.15v.2h-8.27a1.7 1.7 0 0 0-1.68 1.72v5.2c0 .96.75 1.72 1.68 1.72h.2c-.37 1.51-.86 3.2-1.41 4.4-.4.23-.8.48-1.15.72l-.03.03c-.68.47-1.45 1.1-1.56 1.8-.03.25.02.5.17.7.18.25.38.3.53.3.69 0 1.46-1.16 2.17-2.42l.11-.18c.09-.14.15-.3.24-.45a12.96 12.96 0 0 1 4.11-1.36c.05-.02.14-.02.3-.02h.35c1.19 1.51 1.68 1.51 1.83 1.51.2 0 .35-.09.47-.27.26-.45.2-.79.1-.99-.26-.63-1.25-.86-2.1-.93-.64-.85-1.3-1.89-1.87-2.9zm1.04 2.82h-.03l.03.05-.18.02c-1.15.18-2.41.54-3.56 1.06l.02-.04-.07.02c.47-1.17.87-2.6 1.18-3.95h.84c.55 1 1.15 2.01 1.77 2.84zm2.36 1.58c-.1-.02-.4-.2-.86-.72.53.11.84.3.9.45.03.07 0 .16-.04.27zm-7.85 1.33l.02-.02.18-.13c-.88 1.49-1.26 1.71-1.41 1.71 0 0-.03 0-.05-.04-.04-.07-.04-.12-.04-.18.04-.32.48-.8 1.3-1.34zm9.58-10.9c.1.14.17.41.17.78 0 .29-.04.47-.09.6a.46.46 0 0 1-.22.28c-.09.04-.24.06-.46.06h-.27v-1.9h.27c.29 0 .48.08.6.19zm-3.6-.13c.06.07.1.16.1.27 0 .12-.04.2-.13.27-.07.07-.22.12-.42.12h-.27v-.77h.31c.2 0 .34.02.4.11zm10.6-1.37v4.78c0 .63-.5 1.15-1.12 1.15H417.6c-.62 0-1.12-.52-1.12-1.15v-4.78c0-.64.5-1.15 1.12-1.15h13.27c.62 0 1.1.51 1.1 1.15zm-9.48 1.62c0-.34-.09-.6-.29-.79-.2-.18-.48-.27-.86-.27h-1.75v3.47h1.06v-1.3h.58c.42 0 .75-.1.95-.3.2-.2.3-.47.3-.8zm3.71.66a2.18 2.18 0 0 0-.35-1.25c-.13-.15-.29-.29-.46-.36a1.8 1.8 0 0 0-.76-.13h-1.57v3.47h1.57c.18 0 .4-.02.62-.09a.98.98 0 0 0 .47-.27c.15-.13.26-.31.35-.52.09-.2.13-.5.13-.85zm3.17-1.74h-2.61v3.47h1.06v-1.42h1.32v-.7h-1.32v-.6h1.54z"/></defs><g><g transform="translate(-392 -1020)"><use fill="red" xlink:href="#1n4ma"/></g></g></svg>