<svg xmlns="http://www.w3.org/2000/svg" xmlns:xlink="http://www.w3.org/1999/xlink" width="45" height="42" viewBox="0 0 45 42"><defs><path id="lbxia" d="M677.72 460.05l-4.46 4.33a1 1 0 0 1-1.34 0l-6.24-6.06.96 15.59.02.17c0 .5-.42.92-.95.92h-20.43a.97.97 0 0 1-.69-.3.91.91 0 0 1-.26-.68l.98-15.7-6.24 6.06a.96.96 0 0 1-.67.27c-.26 0-.5-.1-.67-.27l-4.46-4.33a.9.9 0 0 1 0-1.3l12.53-12.18c-.69-1.02-1.71-2.8-1.71-4.34 0-1.32 3.28-9.23 11.4-9.23 7.9 0 11.4 8.12 11.4 9.23 0 1.53-1.02 3.32-1.7 4.34l12.53 12.17a.9.9 0 0 1 0 1.3zm-12.47-4.75l7.34 7.12 3.11-3.03-12.36-12a.91.91 0 0 1-.28-.6v-.13a.9.9 0 0 1 .18-.6c.45-.6 1.76-2.58 1.76-3.83-.06-.58-2.9-7.38-9.5-7.38-6.91 0-9.48 6.77-9.51 7.4 0 1.23 1.3 3.21 1.76 3.8.13.18.2.4.18.61v.13a.91.91 0 0 1-.28.6l-12.37 12 3.12 3.03 7.33-7.12a.97.97 0 0 1 1.07-.2c.35.16.58.53.55.9l-1.06 17.15h8.25v-23.49c-2.35-1.46-7.59-4.95-8.06-7.25a.9.9 0 0 1 .2-.76.96.96 0 0 1 .73-.34h16.16c.29 0 .55.12.74.34.18.2.25.49.2.76-.48 2.3-5.71 5.79-8.07 7.25v23.5h8.25L663.63 456a.93.93 0 0 1 .56-.9.98.98 0 0 1 1.06.19zm-16.17-12.15c1.33 1.45 4.14 3.5 6.41 4.91 2.27-1.42 5.09-3.46 6.42-4.9z"/></defs><g><g transform="translate(-633 -433)"><use fill="red" xlink:href="#lbxia"/></g></g></svg>