<svg xmlns="http://www.w3.org/2000/svg" xmlns:xlink="http://www.w3.org/1999/xlink" width="36" height="31" viewBox="0 0 36 31"><defs><path id="7nx6a" d="M413.5 1100.15h-4.76a.8.8 0 0 1-.8-.8v-4.76h-14.3v27.82h8.05a2.78 2.78 0 0 1-.27-1.2v-2a.8.8 0 0 1 0-1.56v-3.97c0-.18.02-.35.05-.52a.8.8 0 0 1 .11-1.59h.8a2.78 2.78 0 0 1 1.83-.68h9.3zM392.85 1124a.8.8 0 0 1-.8-1.03v-29.16a.8.8 0 0 1 .8-.8h15.9c.2 0 .4.08.56.22l5.56 5.57a.8.8 0 0 1 .24.57v11.53h10.11a2.79 2.79 0 0 1 2.79 2.79v7.53a2.79 2.79 0 0 1-2.79 2.79h-21.16zm2.62-17.72c-.01 0-.02 0-.02-.02a.8.8 0 1 1 1.14-1.1l.58.58 1.83-2.12a.8.8 0 0 1 .53-.29.8.8 0 0 1 .68 1.32l-2.38 2.78a.8.8 0 0 1-1.17.05zm0 10.78a.8.8 0 0 1 1.12.02l.58.58 1.83-2.12a.8.8 0 0 1 .53-.29.8.8 0 0 1 .68 1.32l-2.38 2.78a.8.8 0 0 1-1.17.05l-1.2-1.2-.01-.02a.8.8 0 0 1 .01-1.12zm5.29-10.5a.8.8 0 0 1 .83-.83h9.56a.8.8 0 1 1-.02 1.59h-9.54a.8.8 0 0 1-.83-.76zm-5.3 4.54a.8.8 0 0 1 1.13.02l.58.58 1.83-2.12a.8.8 0 0 1 .53-.29.8.8 0 0 1 .68 1.32l-2.38 2.78a.8.8 0 0 1-1.17.05l-1.2-1.2a.8.8 0 0 1 0-1.15zm17.5 9.04l-1.87-2.7 1.84-2.62v-.03h-1.14l-1.35 2.02-1.35-2.02h-1.1v.03l1.81 2.62-1.89 2.7v.05h1.15l1.38-2.03 1.39 2.03h1.14zm4.4-.91h-2.77v-4.44h-1v5.4h3.77zm5.03-.64c0-1.29-1.05-1.58-2.17-1.72-.65-.08-1.2-.2-1.2-.68 0-.4.36-.72 1.11-.72.59 0 1.1.3 1.28.6l.81-.41c-.4-.83-1.28-1.07-2.12-1.07-1 0-2.09.46-2.09 1.57 0 1.21 1.02 1.5 2.12 1.64.72.07 1.25.28 1.25.79 0 .59-.6.81-1.24.81-.65 0-1.28-.26-1.52-.86l-.85.44c.4.99 1.25 1.33 2.36 1.33 1.2 0 2.26-.52 2.26-1.72z"/></defs><g><g transform="translate(-392 -1093)"><use fill="red" xlink:href="#7nx6a"/></g></g></svg>